<svg xmlns="http://www.w3.org/2000/svg" xmlns:xlink="http://www.w3.org/1999/xlink" width="1920" height="1608" viewBox="0 0 1920 1608"><defs><linearGradient id="a" x1="-0.011" y1="1" x2="0.925" y2="1" gradientUnits="objectBoundingBox"><stop offset="0" stop-color="#fff"/><stop offset="0.546" stop-color="#ffdccd"/><stop offset="0.713" stop-color="#ffcdb8"/><stop offset="1" stop-color="#ff4e04"/></linearGradient><filter id="b" x="958.945" y="76.197" width="941.109" height="937.605" filterUnits="userSpaceOnUse"><feOffset dy="10" input="SourceAlpha"/><feGaussianBlur stdDeviation="25" result="c"/><feFlood flood-opacity="0.651"/><feComposite operator="in" in2="c"/><feComposite in="SourceGraphic"/></filter><filter id="d" x="1122.945" y="-177.803" width="941.109" height="937.605" filterUnits="userSpaceOnUse"><feOffset dy="10" input="SourceAlpha"/><feGaussianBlur stdDeviation="25" result="e"/><feFlood/><feComposite operator="in" in2="e"/><feComposite in="SourceGraphic"/></filter><filter id="f" x="1409.945" y="-273.802" width="941.109" height="937.605" filterUnits="userSpaceOnUse"><feOffset dy="10" input="SourceAlpha"/><feGaussianBlur stdDeviation="25" result="g"/><feFlood flood-opacity="0.812"/><feComposite operator="in" in2="g"/><feComposite in="SourceGraphic"/></filter><filter id="h" x="704.945" y="-330.802" width="941.109" height="937.605" filterUnits="userSpaceOnUse"><feOffset dy="10" input="SourceAlpha"/><feGaussianBlur stdDeviation="25" result="i"/><feFlood flood-opacity="0.702"/><feComposite operator="in" in2="i"/><feComposite in="SourceGraphic"/></filter><filter id="j" x="1223.945" y="92.197" width="941.109" height="937.605" filterUnits="userSpaceOnUse"><feOffset dy="9" input="SourceAlpha"/><feGaussianBlur stdDeviation="25" result="k"/><feFlood flood-opacity="0.98"/><feComposite operator="in" in2="k"/><feComposite in="SourceGraphic"/></filter><filter id="l" x="1532.946" y="63.197" width="941.109" height="937.605" filterUnits="userSpaceOnUse"><feOffset dy="10" input="SourceAlpha"/><feGaussianBlur stdDeviation="25" result="m"/><feFlood/><feComposite operator="in" in2="m"/><feComposite in="SourceGraphic"/></filter><filter id="n" x="1200.946" y="427.17" width="1136.26" height="1131.127" filterUnits="userSpaceOnUse"><feOffset dy="9" input="SourceAlpha"/><feGaussianBlur stdDeviation="25" result="o"/><feFlood/><feComposite operator="in" in2="o"/><feComposite in="SourceGraphic"/></filter><linearGradient id="p" x1="0.5" y1="0.274" x2="0.5" y2="1.339" gradientUnits="objectBoundingBox"><stop offset="0" stop-color="#fff"/><stop offset="0.098" stop-color="#fff" stop-opacity="0.945"/><stop offset="0.417" stop-color="#fff" stop-opacity="0"/><stop offset="1" stop-color="#fff" stop-opacity="0"/></linearGradient><clipPath id="r"><rect width="1920" height="1608"/></clipPath></defs><g id="q" clip-path="url(#r)"><rect width="1920" height="1608" fill="url(#a)"/><g transform="matrix(1, 0, 0, 1, 0, 0)" filter="url(#b)"><rect width="523" height="594" rx="44" transform="translate(1468.37 141.2) rotate(47)" fill="#ef723d"/></g><g transform="matrix(1, 0, 0, 1, 0, 0)" filter="url(#d)"><rect width="523" height="594" rx="44" transform="translate(1632.37 -112.8) rotate(47)" fill="#ff4c00"/></g><g transform="matrix(1, 0, 0, 1, 0, 0)" filter="url(#f)"><rect width="523" height="594" rx="44" transform="translate(1919.37 -208.8) rotate(47)" fill="#fb7036"/></g><g transform="matrix(1, 0, 0, 1, 0, 0)" filter="url(#h)"><rect width="523" height="594" rx="44" transform="translate(1214.37 -265.8) rotate(47)" fill="#ff4c00" opacity="0.93"/></g><g transform="matrix(1, 0, 0, 1, 0, 0)" filter="url(#j)"><rect width="523" height="594" rx="44" transform="translate(1733.37 158.2) rotate(47)" fill="#eb5718" opacity="0.49"/></g><g transform="matrix(1, 0, 0, 1, 0, 0)" filter="url(#l)"><rect width="523" height="594" rx="44" transform="translate(2042.37 128.2) rotate(47)" fill="#ff4c00" opacity="0.9"/></g><g transform="matrix(1, 0, 0, 1, 0, 0)" filter="url(#n)"><rect width="644" height="748" rx="44" transform="translate(1823 493.17) rotate(47)" fill="#dc4201" opacity="0.92"/></g><rect width="2008" height="1003" transform="translate(1964 1907) rotate(180)" fill="url(#p)"/></g></svg>